<svg width="199" height="20" viewBox="0 0 199 20" fill="none" xmlns="http://www.w3.org/2000/svg">
<path d="M59.0186 19.9346H56.5596V0H59.0186V19.9346ZM149.002 4.79297C150.632 4.79316 151.862 5.2751 152.683 6.24902C153.503 7.2231 153.913 8.55694 153.913 10.2383C153.913 11.9297 153.503 13.2629 152.683 14.2266C151.862 15.2005 150.632 15.6824 149.002 15.6826C147.136 15.6826 145.915 15.149 145.341 14.083V19.7539H143.249V5.00879H145.136L145.32 6.4541C145.884 5.34668 147.105 4.79297 149.002 4.79297ZM11.0547 2.22461C11.9033 2.22465 12.7288 2.47245 13.4404 2.94336C14.1434 3.40606 14.7018 4.06611 15.0342 4.83984C15.3648 5.62026 15.4554 6.47393 15.3018 7.30371C15.148 8.13169 14.7513 8.88936 14.1602 9.49512C14.2486 9.56752 14.331 9.64636 14.4111 9.71875C15.0492 10.2769 15.5356 10.987 15.7861 11.792C16.0767 12.7091 16.0612 13.6975 15.7539 14.6064V14.6035C15.4465 15.5122 14.8562 16.3012 14.0713 16.8594C13.2861 17.4172 12.3404 17.7207 11.3701 17.7207H0V2.2168L11.0547 2.22461ZM26.6045 2.21484C28.6511 2.24613 30.6078 3.08444 32.0479 4.53516C33.4226 5.92152 34.2147 7.7787 34.2715 9.71484C34.2799 9.80204 34.2881 9.88302 34.2881 9.96191C34.2881 11.994 33.4797 13.9477 32.0479 15.3984L32.0498 15.3994C30.6098 16.8501 28.6529 17.6785 26.6064 17.7197H17.209V15.5029H26.3789C27.7137 15.5029 29.0073 15.0261 30.0264 14.165C31.0371 13.3038 31.7086 12.1076 31.9023 10.792H19.6748V8.58398H31.7891C31.4816 7.39682 30.7778 6.33614 29.7988 5.58691C28.8199 4.83787 27.6156 4.43171 26.3779 4.43164H17.208V2.21484H26.6045ZM51.0215 4.43359H38.7285V8.58594H47.6309C48.7067 8.61063 49.7266 9.02449 50.5352 9.71777C50.6318 9.79655 50.7369 9.86912 50.8252 9.95605C51.6653 10.809 52.1357 11.957 52.1357 13.1523C52.1356 14.3477 51.6653 15.488 50.8252 16.3408H50.8271C49.9786 17.2017 48.837 17.6875 47.6328 17.7188H36.2627V2.2168H51.0215V4.43359ZM160.824 4.7832C162.454 4.78329 163.757 5.23398 164.731 6.14648C165.715 7.05909 166.218 8.44433 166.218 10.2793C166.218 12.1347 165.716 13.5197 164.731 14.4219C163.757 15.3549 162.454 15.8056 160.824 15.8057C159.184 15.8057 157.882 15.3543 156.897 14.4219C155.934 13.5197 155.442 12.1348 155.441 10.2793C155.441 8.44385 155.934 7.05908 156.897 6.14648C157.882 5.23406 159.184 4.7832 160.824 4.7832ZM104.028 4.80371C105.515 4.8039 106.715 5.2243 107.627 6.05469C108.539 6.88531 108.991 8.22903 108.991 10.0947C108.991 10.4123 108.98 10.7411 108.96 11.0791H101.146C101.198 11.9092 101.506 12.5866 102.049 13.1094C102.592 13.6421 103.413 13.9092 104.489 13.9092C105.812 13.9091 106.684 13.4778 107.084 12.627H108.878V13.2627C108.396 14.8107 106.837 15.7137 104.489 15.7139C102.757 15.7139 101.413 15.252 100.47 14.3193C99.5163 13.3864 99.0451 12.0322 99.0449 10.2383C99.0449 8.40283 99.5063 7.03857 100.419 6.14648C101.332 5.25456 102.542 4.80371 104.028 4.80371ZM115.984 4.77246C118.209 4.77272 119.686 5.6653 120.394 7.44922V8.07422H118.63C118.169 7.06959 117.286 6.56763 115.984 6.56738C114.939 6.56738 114.139 6.91569 113.585 7.60254C113.031 8.28954 112.754 9.1719 112.754 10.2383C112.754 11.3145 113.031 12.2068 113.585 12.8936C114.139 13.5801 114.939 13.9297 115.984 13.9297C117.306 13.9294 118.189 13.4264 118.65 12.4219H120.373V13.0479C119.676 14.8212 118.209 15.7136 115.984 15.7139C114.272 15.7139 112.959 15.1904 112.036 14.1553C111.113 13.1198 110.653 11.8169 110.652 10.2383C110.652 8.70021 111.134 7.40771 112.108 6.35156C113.072 5.29557 114.364 4.77246 115.984 4.77246ZM172.729 4.80371C174.216 4.8039 175.416 5.2243 176.328 6.05469C177.24 6.88531 177.692 8.22903 177.692 10.0947C177.692 10.4123 177.682 10.7411 177.661 11.0791H169.848C169.899 11.9092 170.207 12.5866 170.75 13.1094C171.293 13.6421 172.114 13.9092 173.19 13.9092C174.513 13.9091 175.385 13.4778 175.785 12.627H177.579V13.2627C177.097 14.8107 175.538 15.7137 173.19 15.7139C171.458 15.7139 170.114 15.252 169.171 14.3193C168.217 13.3864 167.746 12.0322 167.746 10.2383C167.746 8.40283 168.208 7.03857 169.12 6.14648C170.033 5.25456 171.243 4.80371 172.729 4.80371ZM67.6777 12.125H67.873L73.1436 5.00879H75.0303V15.5088H72.9277V8.35156H72.7637L67.4727 15.5088H65.5859V5.00879H67.6777V12.125ZM79.46 9.21289H84.4941V5.00879H86.5967V15.5088H84.4941V10.9971H79.46V15.5088H77.3574V5.00879H79.46V9.21289ZM93.5693 5.00879C94.6968 5.00893 95.5891 5.24477 96.2451 5.72656C96.8906 6.20846 97.2197 6.88561 97.2197 7.75684C97.2194 8.81238 96.7266 9.54064 95.7529 9.96094C97.0138 10.3302 97.6396 11.2018 97.6396 12.3809C97.6395 13.3957 97.3016 14.1759 96.625 14.709C95.9382 15.242 94.9942 15.5086 93.7949 15.5088H88.9238V5.00879H93.5693ZM130.165 6.79297H126.802V15.5088H124.71V6.79297H121.347V5.00879H130.165V6.79297ZM140.717 15.5088H138.614V6.79297H133.785V15.5088H131.683V5.00879H140.717V15.5088ZM181.855 9.19238H182.419L186.664 5.00879H188.756V5.63379L184.265 9.98145L189.136 14.832V15.5088H186.869L182.419 10.9766H181.855V15.5088H179.753V5.00879H181.855V9.19238ZM198.723 6.79297H195.359V15.5088H193.268V6.79297H189.904V5.00879H198.723V6.79297ZM2.46484 15.5039H11.1729C11.7892 15.481 12.3732 15.2224 12.8008 14.7812C13.2284 14.3401 13.4651 13.7513 13.4619 13.1406C13.4585 12.5299 13.2161 11.9437 12.7852 11.5059C12.3542 11.0678 11.7678 10.8144 11.1514 10.7979L11.1533 10.7959H2.46484V15.5039ZM38.7207 15.5039L47.4092 15.501C47.7283 15.5107 48.0462 15.4573 48.3418 15.3438C48.6389 15.2301 48.9099 15.0594 49.1387 14.8389C49.3674 14.62 49.5491 14.3557 49.6729 14.0645C49.7963 13.7732 49.8613 13.4614 49.8613 13.1455C49.8613 12.8297 49.7979 12.5178 49.6729 12.2266C49.5476 11.9355 49.3672 11.6735 49.1387 11.4531V11.4561C48.9099 11.2372 48.639 11.0648 48.3418 10.9512C48.0444 10.8375 47.7266 10.784 47.4092 10.7939H38.7207V15.5039ZM160.824 6.58789C158.384 6.58789 157.563 7.98242 157.563 10.2793C157.564 12.6063 158.394 14.001 160.865 14.001C163.305 14.0008 164.085 12.5345 164.085 10.2793C164.085 7.98257 163.275 6.58808 160.824 6.58789ZM148.786 6.57715C147.812 6.57715 146.992 6.85419 146.336 7.41797C145.669 7.98193 145.341 8.91553 145.341 10.2383C145.341 11.5708 145.67 12.5148 146.336 13.0684C146.992 13.6215 147.813 13.8984 148.786 13.8984C150.888 13.8982 151.811 12.6676 151.812 10.2383C151.812 7.8288 150.888 6.57734 148.786 6.57715ZM91.0264 13.8271H93.6514C94.9115 13.8269 95.5377 13.3341 95.5381 12.3506C95.5381 11.3767 94.9119 10.884 93.6514 10.8838H91.0264V13.8271ZM104.254 6.71094C102.295 6.71094 101.29 7.60303 101.249 9.39746H106.981C106.981 7.60335 106.068 6.71126 104.254 6.71094ZM172.955 6.71094C170.997 6.71094 169.991 7.60303 169.95 9.39746H175.683C175.683 7.60335 174.769 6.71126 172.955 6.71094ZM91.0264 9.21289H93.5693C94.6041 9.21262 95.117 8.78115 95.1172 7.93066C95.1172 7.10036 94.6043 6.69069 93.5693 6.69043H91.0264V9.21289ZM2.46582 8.58301H10.8174C11.0929 8.58299 11.3652 8.52844 11.6191 8.4248C11.8728 8.32119 12.1035 8.168 12.2988 7.97559C12.4926 7.78301 12.6487 7.55361 12.7539 7.30176C12.8591 7.05013 12.9139 6.77982 12.9141 6.50684C12.9141 6.23366 12.8607 5.96275 12.7539 5.71094C12.6488 5.4591 12.4943 5.22972 12.2988 5.03711C12.1035 4.84466 11.8728 4.69157 11.6191 4.58789C11.3652 4.48419 11.0929 4.4297 10.8174 4.42969H2.46582V8.58301Z" fill="currentColor"/>
</svg>
